<mxfile host="app.diagrams.net" modified="2023-11-16T12:24:33.591Z" agent="Mozilla/5.0 (Macintosh; Intel Mac OS X 10.15; rv:109.0) Gecko/20100101 Firefox/119.0" version="22.1.2" etag="UdON8peeHbAjewf1PK7_" type="github">
  <diagram name="Page-1" id="ZGDcVndd4uRBxtF6O3r6">
    <mxGraphModel>
      <root>
        <mxCell id="0" />
        <mxCell id="1" parent="0" />
      </root>
    </mxGraphModel>
  </diagram>
</mxfile>
